<svg id="visual" viewBox="0 0 900 600" width="900" height="600" xmlns="http://www.w3.org/2000/svg" xmlns:xlink="http://www.w3.org/1999/xlink" version="1.1"><path d="M0 37L39 37L39 7L78 7L78 49L117 49L117 37L157 37L157 0L196 0L196 37L235 37L235 37L274 37L274 25L313 25L313 19L352 19L352 61L391 61L391 19L430 19L430 49L470 49L470 31L509 31L509 13L548 13L548 19L587 19L587 13L626 13L626 19L665 19L665 13L704 13L704 13L743 13L743 55L783 55L783 49L822 49L822 37L861 37L861 49L900 49L900 0L900 0L900 0L861 0L861 0L822 0L822 0L783 0L783 0L743 0L743 0L704 0L704 0L665 0L665 0L626 0L626 0L587 0L587 0L548 0L548 0L509 0L509 0L470 0L470 0L430 0L430 0L391 0L391 0L352 0L352 0L313 0L313 0L274 0L274 0L235 0L235 0L196 0L196 0L157 0L157 0L117 0L117 0L78 0L78 0L39 0L39 0L0 0Z" fill="#3b973b"></path><path d="M0 115L39 115L39 259L78 259L78 103L117 103L117 271L157 271L157 295L196 295L196 133L235 133L235 223L274 223L274 223L313 223L313 175L352 175L352 235L391 235L391 25L430 25L430 79L470 79L470 49L509 49L509 193L548 193L548 217L587 217L587 79L626 79L626 103L665 103L665 193L704 193L704 79L743 79L743 223L783 223L783 115L822 115L822 49L861 49L861 229L900 229L900 169L900 0L900 47L861 47L861 35L822 35L822 47L783 47L783 53L743 53L743 11L704 11L704 11L665 11L665 17L626 17L626 11L587 11L587 17L548 17L548 11L509 11L509 29L470 29L470 47L430 47L430 17L391 17L391 59L352 59L352 17L313 17L313 23L274 23L274 35L235 35L235 35L196 35L196 0L157 0L157 35L117 35L117 47L78 47L78 5L39 5L39 35L0 35Z" fill="#4c9c49"></path><path d="M0 151L39 151L39 271L78 271L78 115L117 115L117 283L157 283L157 331L196 331L196 163L235 163L235 229L274 229L274 241L313 241L313 175L352 175L352 247L391 247L391 73L430 73L430 85L470 85L470 79L509 79L509 205L548 205L548 223L587 223L587 79L626 79L626 109L665 109L665 223L704 223L704 121L743 121L743 241L783 241L783 127L822 127L822 79L861 79L861 265L900 265L900 205L900 167L900 227L861 227L861 47L822 47L822 113L783 113L783 221L743 221L743 77L704 77L704 191L665 191L665 101L626 101L626 77L587 77L587 215L548 215L548 191L509 191L509 47L470 47L470 77L430 77L430 23L391 23L391 233L352 233L352 173L313 173L313 221L274 221L274 221L235 221L235 131L196 131L196 293L157 293L157 269L117 269L117 101L78 101L78 257L39 257L39 113L0 113Z" fill="#5ba156"></path><path d="M0 301L39 301L39 271L78 271L78 265L117 265L117 295L157 295L157 355L196 355L196 271L235 271L235 271L274 271L274 241L313 241L313 247L352 247L352 385L391 385L391 145L430 145L430 85L470 85L470 163L509 163L509 313L548 313L548 283L587 283L587 211L626 211L626 211L665 211L665 277L704 277L704 211L743 211L743 325L783 325L783 163L822 163L822 121L861 121L861 295L900 295L900 265L900 203L900 263L861 263L861 77L822 77L822 125L783 125L783 239L743 239L743 119L704 119L704 221L665 221L665 107L626 107L626 77L587 77L587 221L548 221L548 203L509 203L509 77L470 77L470 83L430 83L430 71L391 71L391 245L352 245L352 173L313 173L313 239L274 239L274 227L235 227L235 161L196 161L196 329L157 329L157 281L117 281L117 113L78 113L78 269L39 269L39 149L0 149Z" fill="#69a663"></path><path d="M0 307L39 307L39 349L78 349L78 349L117 349L117 349L157 349L157 355L196 355L196 325L235 325L235 319L274 319L274 247L313 247L313 253L352 253L352 391L391 391L391 223L430 223L430 133L470 133L470 217L509 217L509 319L548 319L548 337L587 337L587 229L626 229L626 277L665 277L665 277L704 277L704 277L743 277L743 355L783 355L783 181L822 181L822 205L861 205L861 307L900 307L900 277L900 263L900 293L861 293L861 119L822 119L822 161L783 161L783 323L743 323L743 209L704 209L704 275L665 275L665 209L626 209L626 209L587 209L587 281L548 281L548 311L509 311L509 161L470 161L470 83L430 83L430 143L391 143L391 383L352 383L352 245L313 245L313 239L274 239L274 269L235 269L235 269L196 269L196 353L157 353L157 293L117 293L117 263L78 263L78 269L39 269L39 299L0 299Z" fill="#76ab70"></path><path d="M0 409L39 409L39 349L78 349L78 481L117 481L117 403L157 403L157 409L196 409L196 349L235 349L235 379L274 379L274 319L313 319L313 337L352 337L352 403L391 403L391 403L430 403L430 355L470 355L470 313L509 313L509 397L548 397L548 397L587 397L587 355L626 355L626 415L665 415L665 337L704 337L704 367L743 367L743 373L783 373L783 427L822 427L822 355L861 355L861 451L900 451L900 277L900 275L900 305L861 305L861 203L822 203L822 179L783 179L783 353L743 353L743 275L704 275L704 275L665 275L665 275L626 275L626 227L587 227L587 335L548 335L548 317L509 317L509 215L470 215L470 131L430 131L430 221L391 221L391 389L352 389L352 251L313 251L313 245L274 245L274 317L235 317L235 323L196 323L196 353L157 353L157 347L117 347L117 347L78 347L78 347L39 347L39 305L0 305Z" fill="#83b07d"></path><path d="M0 451L39 451L39 397L78 397L78 487L117 487L117 415L157 415L157 505L196 505L196 391L235 391L235 451L274 451L274 379L313 379L313 361L352 361L352 457L391 457L391 427L430 427L430 409L470 409L470 385L509 385L509 469L548 469L548 433L587 433L587 469L626 469L626 481L665 481L665 469L704 469L704 373L743 373L743 427L783 427L783 427L822 427L822 445L861 445L861 469L900 469L900 361L900 275L900 449L861 449L861 353L822 353L822 425L783 425L783 371L743 371L743 365L704 365L704 335L665 335L665 413L626 413L626 353L587 353L587 395L548 395L548 395L509 395L509 311L470 311L470 353L430 353L430 401L391 401L391 401L352 401L352 335L313 335L313 317L274 317L274 377L235 377L235 347L196 347L196 407L157 407L157 401L117 401L117 479L78 479L78 347L39 347L39 407L0 407Z" fill="#8fb48a"></path><path d="M0 463L39 463L39 415L78 415L78 511L117 511L117 415L157 415L157 511L196 511L196 445L235 445L235 469L274 469L274 421L313 421L313 421L352 421L352 505L391 505L391 469L430 469L430 457L470 457L470 427L509 427L509 517L548 517L548 493L587 493L587 469L626 469L626 493L665 493L665 469L704 469L704 409L743 409L743 481L783 481L783 451L822 451L822 511L861 511L861 523L900 523L900 421L900 359L900 467L861 467L861 443L822 443L822 425L783 425L783 425L743 425L743 371L704 371L704 467L665 467L665 479L626 479L626 467L587 467L587 431L548 431L548 467L509 467L509 383L470 383L470 407L430 407L430 425L391 425L391 455L352 455L352 359L313 359L313 377L274 377L274 449L235 449L235 389L196 389L196 503L157 503L157 413L117 413L117 485L78 485L78 395L39 395L39 449L0 449Z" fill="#9cb997"></path><path d="M0 511L39 511L39 463L78 463L78 517L117 517L117 439L157 439L157 517L196 517L196 493L235 493L235 493L274 493L274 457L313 457L313 475L352 475L352 505L391 505L391 481L430 481L430 475L470 475L470 469L509 469L509 529L548 529L548 505L587 505L587 475L626 475L626 499L665 499L665 511L704 511L704 457L743 457L743 511L783 511L783 493L822 493L822 511L861 511L861 535L900 535L900 469L900 419L900 521L861 521L861 509L822 509L822 449L783 449L783 479L743 479L743 407L704 407L704 467L665 467L665 491L626 491L626 467L587 467L587 491L548 491L548 515L509 515L509 425L470 425L470 455L430 455L430 467L391 467L391 503L352 503L352 419L313 419L313 419L274 419L274 467L235 467L235 443L196 443L196 509L157 509L157 413L117 413L117 509L78 509L78 413L39 413L39 461L0 461Z" fill="#a8bea4"></path><path d="M0 535L39 535L39 517L78 517L78 517L117 517L117 487L157 487L157 535L196 535L196 535L235 535L235 523L274 523L274 505L313 505L313 529L352 529L352 505L391 505L391 499L430 499L430 475L470 475L470 493L509 493L509 559L548 559L548 517L587 517L587 535L626 535L626 529L665 529L665 517L704 517L704 499L743 499L743 535L783 535L783 547L822 547L822 511L861 511L861 541L900 541L900 511L900 467L900 533L861 533L861 509L822 509L822 491L783 491L783 509L743 509L743 455L704 455L704 509L665 509L665 497L626 497L626 473L587 473L587 503L548 503L548 527L509 527L509 467L470 467L470 473L430 473L430 479L391 479L391 503L352 503L352 473L313 473L313 455L274 455L274 491L235 491L235 491L196 491L196 515L157 515L157 437L117 437L117 515L78 515L78 461L39 461L39 509L0 509Z" fill="#b4c3b1"></path><path d="M0 601L39 601L39 559L78 559L78 523L117 523L117 517L157 517L157 595L196 595L196 559L235 559L235 589L274 589L274 571L313 571L313 535L352 535L352 541L391 541L391 565L430 565L430 541L470 541L470 553L509 553L509 589L548 589L548 535L587 535L587 553L626 553L626 553L665 553L665 517L704 517L704 529L743 529L743 571L783 571L783 553L822 553L822 571L861 571L861 553L900 553L900 541L900 509L900 539L861 539L861 509L822 509L822 545L783 545L783 533L743 533L743 497L704 497L704 515L665 515L665 527L626 527L626 533L587 533L587 515L548 515L548 557L509 557L509 491L470 491L470 473L430 473L430 497L391 497L391 503L352 503L352 527L313 527L313 503L274 503L274 521L235 521L235 533L196 533L196 533L157 533L157 485L117 485L117 515L78 515L78 515L39 515L39 533L0 533Z" fill="#c0c7be"></path><path d="M0 601L39 601L39 601L78 601L78 601L117 601L117 601L157 601L157 601L196 601L196 601L235 601L235 601L274 601L274 601L313 601L313 601L352 601L352 601L391 601L391 601L430 601L430 601L470 601L470 601L509 601L509 601L548 601L548 601L587 601L587 601L626 601L626 601L665 601L665 601L704 601L704 601L743 601L743 601L783 601L783 601L822 601L822 601L861 601L861 601L900 601L900 601L900 539L900 551L861 551L861 569L822 569L822 551L783 551L783 569L743 569L743 527L704 527L704 515L665 515L665 551L626 551L626 551L587 551L587 533L548 533L548 587L509 587L509 551L470 551L470 539L430 539L430 563L391 563L391 539L352 539L352 533L313 533L313 569L274 569L274 587L235 587L235 557L196 557L196 593L157 593L157 515L117 515L117 521L78 521L78 557L39 557L39 599L0 599Z" fill="#cccccc"></path></svg>